<svg width="17" height="16" viewBox="0 0 17 16" fill="none" xmlns="http://www.w3.org/2000/svg">
<path d="M15.6911 5.70438L11.0243 5.02615L8.93813 0.796842C8.88115 0.681046 8.78741 0.587306 8.67161 0.530327C8.38121 0.386961 8.0283 0.506433 7.8831 0.796842L5.79694 5.02615L1.13018 5.70438C1.00152 5.72276 0.883881 5.78342 0.793818 5.87532C0.684936 5.98723 0.624937 6.13779 0.627005 6.29392C0.629073 6.45004 0.693038 6.59896 0.804846 6.70795L4.18131 9.99986L3.3836 14.6482C3.3649 14.7564 3.37686 14.8676 3.41814 14.9693C3.45942 15.0709 3.52837 15.159 3.61716 15.2235C3.70595 15.288 3.81103 15.3263 3.92049 15.3341C4.02995 15.3419 4.13941 15.3189 4.23645 15.2677L8.41061 13.073L12.5848 15.2677C12.6987 15.3283 12.8311 15.3485 12.9579 15.3265C13.2777 15.2713 13.4928 14.9681 13.4376 14.6482L12.6399 9.99986L16.0164 6.70795C16.1083 6.61788 16.1689 6.50025 16.1873 6.37159C16.2369 6.04993 16.0127 5.75217 15.6911 5.70438Z" fill="#5C51E2"/>
</svg>
